<svg width="173" height="30" viewBox="0 0 173 30" fill="none" xmlns="http://www.w3.org/2000/svg">
<path d="M0.448188 1.184H14.7842V5.048H4.95619V10.508H13.6362V14.372H4.95619V19.944H15.0922V23.808H0.448188V1.184Z" fill="#00462A"/>
<path d="M20.2431 6.28L24.2191 18.292L28.1391 6.28H32.7871L26.5151 23.808H21.9231L15.6511 6.28H20.2431ZM49.1842 18.712C48.4562 22.8 45.0122 24.228 41.3722 24.228C36.3882 24.228 32.9162 21.54 32.9162 16.528V13.336C32.9162 8.352 36.3882 5.636 41.1762 5.636C45.9362 5.636 49.4922 8.38 49.4922 13.448V16.22H37.1722C37.1722 19.076 38.2642 20.56 41.3162 20.56C42.5762 20.56 44.2842 20.308 44.6202 18.712H49.1842ZM41.1482 9.36C38.8242 9.36 37.4802 10.312 37.2002 12.72H45.0402C44.7882 10.34 43.5002 9.36 41.1482 9.36ZM62.835 6.028V10.228L56.003 13V23.808H51.663V6.28H55.443L55.807 8.576L62.835 6.028ZM73.1156 29.688H68.8316L71.2396 22.772L64.2956 6.28H68.8876L73.1716 17.2L76.8396 6.28H81.4316L73.1156 29.688ZM91.7864 6.28H95.8184L98.2544 18.376L101.194 6.28H105.562L100.914 23.808H95.9584L93.8304 14.512L91.6744 23.808H86.6904L82.0144 6.28H86.4104L89.3504 18.376L91.7864 6.28ZM111.563 7.204C112.739 6.196 114.139 5.692 115.679 5.692C120.523 5.692 123.463 8.492 123.463 13.364V23.808H119.123V13.7C119.123 11.096 118.283 9.388 115.539 9.388C112.739 9.388 111.563 11.152 111.563 13.728V23.808H107.335V0.399999H111.563V7.204ZM141.661 18.712C140.933 22.8 137.489 24.228 133.849 24.228C128.865 24.228 125.393 21.54 125.393 16.528V13.336C125.393 8.352 128.865 5.636 133.653 5.636C138.413 5.636 141.969 8.38 141.969 13.448V16.22H129.649C129.649 19.076 130.741 20.56 133.793 20.56C135.053 20.56 136.761 20.308 137.097 18.712H141.661ZM133.625 9.36C131.301 9.36 129.957 10.312 129.677 12.72H137.517C137.265 10.34 135.977 9.36 133.625 9.36ZM155.312 6.028V10.228L148.48 13V23.808H144.14V6.28H147.92L148.284 8.576L155.312 6.028ZM171.985 18.712C171.257 22.8 167.813 24.228 164.173 24.228C159.189 24.228 155.717 21.54 155.717 16.528V13.336C155.717 8.352 159.189 5.636 163.977 5.636C168.737 5.636 172.293 8.38 172.293 13.448V16.22H159.973C159.973 19.076 161.065 20.56 164.117 20.56C165.377 20.56 167.085 20.308 167.421 18.712H171.985ZM163.949 9.36C161.625 9.36 160.281 10.312 160.001 12.72H167.841C167.589 10.34 166.301 9.36 163.949 9.36Z" fill="black"/>
</svg>
