<svg width="155" height="27" viewBox="0 0 155 27" fill="none" xmlns="http://www.w3.org/2000/svg">
<path d="M0.614453 1.2H13.4145V4.65H4.63945V9.525H12.3895V12.975H4.63945V17.95H13.6895V21.4H0.614453V1.2Z" fill="#00462A"/>
<path d="M18.2885 5.75L21.8385 16.475L25.3385 5.75H29.4885L23.8885 21.4H19.7885L14.1885 5.75H18.2885ZM44.1287 16.85C43.4787 20.5 40.4037 21.775 37.1537 21.775C32.7037 21.775 29.6037 19.375 29.6037 14.9V12.05C29.6037 7.6 32.7037 5.175 36.9787 5.175C41.2287 5.175 44.4037 7.625 44.4037 12.15V14.625H33.4037C33.4037 17.175 34.3787 18.5 37.1037 18.5C38.2287 18.5 39.7537 18.275 40.0537 16.85H44.1287ZM36.9537 8.5C34.8787 8.5 33.6787 9.35 33.4287 11.5H40.4287C40.2037 9.375 39.0537 8.5 36.9537 8.5ZM56.317 5.525V9.275L50.217 11.75V21.4H46.342V5.75H49.717L50.042 7.8L56.317 5.525ZM65.4961 26.65H61.6711L63.8211 20.475L57.6211 5.75H61.7211L65.5461 15.5L68.8211 5.75H72.9211L65.4961 26.65ZM82.1664 5.75H85.7664L87.9414 16.55L90.5664 5.75H94.4664L90.3164 21.4H85.8914L83.9914 13.1L82.0664 21.4H77.6164L73.4414 5.75H77.3664L79.9914 16.55L82.1664 5.75ZM99.824 6.575C100.874 5.675 102.124 5.225 103.499 5.225C107.824 5.225 110.449 7.725 110.449 12.075V21.4H106.574V12.375C106.574 10.05 105.824 8.525 103.374 8.525C100.874 8.525 99.824 10.1 99.824 12.4V21.4H96.049V0.499999H99.824V6.575ZM126.697 16.85C126.047 20.5 122.972 21.775 119.722 21.775C115.272 21.775 112.172 19.375 112.172 14.9V12.05C112.172 7.6 115.272 5.175 119.547 5.175C123.797 5.175 126.972 7.625 126.972 12.15V14.625H115.972C115.972 17.175 116.947 18.5 119.672 18.5C120.797 18.5 122.322 18.275 122.622 16.85H126.697ZM119.522 8.5C117.447 8.5 116.247 9.35 115.997 11.5H122.997C122.772 9.375 121.622 8.5 119.522 8.5ZM138.885 5.525V9.275L132.785 11.75V21.4H128.91V5.75H132.285L132.61 7.8L138.885 5.525ZM153.772 16.85C153.122 20.5 150.047 21.775 146.797 21.775C142.347 21.775 139.247 19.375 139.247 14.9V12.05C139.247 7.6 142.347 5.175 146.622 5.175C150.872 5.175 154.047 7.625 154.047 12.15V14.625H143.047C143.047 17.175 144.022 18.5 146.747 18.5C147.872 18.5 149.397 18.275 149.697 16.85H153.772ZM146.597 8.5C144.522 8.5 143.322 9.35 143.072 11.5H150.072C149.847 9.375 148.697 8.5 146.597 8.5Z" fill="black"/>
</svg>
