<svg width="124" height="21" viewBox="0 0 124 21" fill="none" xmlns="http://www.w3.org/2000/svg">
<path d="M0.891563 0.559999H11.1316V3.32H4.11156V7.22H10.3116V9.98H4.11156V13.96H11.3516V16.72H0.891563V0.559999Z" fill="#00462A"/>
<path d="M15.0308 4.2L17.8708 12.78L20.6708 4.2H23.9908L19.5108 16.72H16.2308L11.7508 4.2H15.0308ZM35.703 13.08C35.183 16 32.723 17.02 30.123 17.02C26.563 17.02 24.083 15.1 24.083 11.52V9.24C24.083 5.68 26.563 3.74 29.983 3.74C33.383 3.74 35.923 5.7 35.923 9.32V11.3H27.123C27.123 13.34 27.903 14.4 30.083 14.4C30.983 14.4 32.203 14.22 32.443 13.08H35.703ZM29.963 6.4C28.303 6.4 27.343 7.08 27.143 8.8H32.743C32.563 7.1 31.643 6.4 29.963 6.4ZM45.4536 4.02V7.02L40.5736 9V16.72H37.4736V4.2H40.1736L40.4336 5.84L45.4536 4.02ZM52.7969 20.92H49.7369L51.4569 15.98L46.4969 4.2H49.7769L52.8369 12L55.4569 4.2H58.7369L52.7969 20.92ZM66.1331 4.2H69.0131L70.7531 12.84L72.8531 4.2H75.9731L72.6531 16.72H69.1131L67.5931 10.08L66.0531 16.72H62.4931L59.1531 4.2H62.2931L64.3931 12.84L66.1331 4.2ZM80.2592 4.86C81.0992 4.14 82.0992 3.78 83.1992 3.78C86.6592 3.78 88.7592 5.78 88.7592 9.26V16.72H85.6592V9.5C85.6592 7.64 85.0592 6.42 83.0992 6.42C81.0992 6.42 80.2592 7.68 80.2592 9.52V16.72H77.2392V-9.53674e-07H80.2592V4.86ZM101.758 13.08C101.238 16 98.7777 17.02 96.1777 17.02C92.6177 17.02 90.1377 15.1 90.1377 11.52V9.24C90.1377 5.68 92.6177 3.74 96.0377 3.74C99.4377 3.74 101.978 5.7 101.978 9.32V11.3H93.1777C93.1777 13.34 93.9577 14.4 96.1377 14.4C97.0377 14.4 98.2577 14.22 98.4977 13.08H101.758ZM96.0177 6.4C94.3577 6.4 93.3977 7.08 93.1977 8.8H98.7977C98.6177 7.1 97.6977 6.4 96.0177 6.4ZM111.508 4.02V7.02L106.628 9V16.72H103.528V4.2H106.228L106.488 5.84L111.508 4.02ZM123.418 13.08C122.898 16 120.438 17.02 117.838 17.02C114.278 17.02 111.798 15.1 111.798 11.52V9.24C111.798 5.68 114.278 3.74 117.698 3.74C121.098 3.74 123.638 5.7 123.638 9.32V11.3H114.838C114.838 13.34 115.618 14.4 117.798 14.4C118.698 14.4 119.918 14.22 120.158 13.08H123.418ZM117.678 6.4C116.018 6.4 115.058 7.08 114.858 8.8H120.458C120.278 7.1 119.358 6.4 117.678 6.4Z" fill="black"/>
</svg>
