<svg width="215" height="38" viewBox="0 0 215 38" fill="none" xmlns="http://www.w3.org/2000/svg">
<path d="M0.0602344 1.48H17.9802V6.31H5.69523V13.135H16.5452V17.965H5.69523V24.93H18.3652V29.76H0.0602344V1.48Z" fill="#00462A"/>
<path d="M24.8039 7.85L29.7739 22.865L34.6739 7.85H40.4839L32.6439 29.76H26.9039L19.0639 7.85H24.8039ZM60.9802 23.39C60.0702 28.5 55.7652 30.285 51.2152 30.285C44.9852 30.285 40.6452 26.925 40.6452 20.66V16.67C40.6452 10.44 44.9852 7.045 50.9702 7.045C56.9202 7.045 61.3652 10.475 61.3652 16.81V20.275H45.9652C45.9652 23.845 47.3302 25.7 51.1452 25.7C52.7202 25.7 54.8552 25.385 55.2752 23.39H60.9802ZM50.9352 11.7C48.0302 11.7 46.3502 12.89 46.0002 15.9H55.8002C55.4852 12.925 53.8752 11.7 50.9352 11.7ZM78.0438 7.535V12.785L69.5038 16.25V29.76H64.0788V7.85H68.8038L69.2588 10.72L78.0438 7.535ZM90.8945 37.11H85.5395L88.5495 28.465L79.8695 7.85H85.6095L90.9645 21.5L95.5495 7.85H101.29L90.8945 37.11ZM114.233 7.85H119.273L122.318 22.97L125.993 7.85H131.453L125.643 29.76H119.448L116.788 18.14L114.093 29.76H107.863L102.018 7.85H107.513L111.188 22.97L114.233 7.85ZM138.954 9.005C140.424 7.745 142.174 7.115 144.099 7.115C150.154 7.115 153.829 10.615 153.829 16.705V29.76H148.404V17.125C148.404 13.87 147.354 11.735 143.924 11.735C140.424 11.735 138.954 13.94 138.954 17.16V29.76H133.669V0.499998H138.954V9.005ZM176.576 23.39C175.666 28.5 171.361 30.285 166.811 30.285C160.581 30.285 156.241 26.925 156.241 20.66V16.67C156.241 10.44 160.581 7.045 166.566 7.045C172.516 7.045 176.961 10.475 176.961 16.81V20.275H161.561C161.561 23.845 162.926 25.7 166.741 25.7C168.316 25.7 170.451 25.385 170.871 23.39H176.576ZM166.531 11.7C163.626 11.7 161.946 12.89 161.596 15.9H171.396C171.081 12.925 169.471 11.7 166.531 11.7ZM193.639 7.535V12.785L185.099 16.25V29.76H179.674V7.85H184.399L184.854 10.72L193.639 7.535ZM214.481 23.39C213.571 28.5 209.266 30.285 204.716 30.285C198.486 30.285 194.146 26.925 194.146 20.66V16.67C194.146 10.44 198.486 7.045 204.471 7.045C210.421 7.045 214.866 10.475 214.866 16.81V20.275H199.466C199.466 23.845 200.831 25.7 204.646 25.7C206.221 25.7 208.356 25.385 208.776 23.39H214.481ZM204.436 11.7C201.531 11.7 199.851 12.89 199.501 15.9H209.301C208.986 12.925 207.376 11.7 204.436 11.7Z" fill="black"/>
</svg>
